<svg fill="none" height="88" viewBox="0 0 184 88" width="184" xmlns="http://www.w3.org/2000/svg" xmlns:xlink="http://www.w3.org/1999/xlink"><clipPath id="a"><path d="m2 14h180v60h-180z"/></clipPath><g clip-path="url(#a)" fill="#808080"><path d="m20.2639 49.9828c2.4756 0 4.4825-2.007 4.4825-4.4826 0-2.4757-2.0069-4.4826-4.4825-4.4826-2.4757 0-4.4827 2.0069-4.4827 4.4826 0 2.4756 2.007 4.4826 4.4827 4.4826z"/><path d="m20.264 26.6743c-8.7714 0-16.1418 6-18.2328 14.1192-.018.0714-.0312.1464-.0312.2238 0 .495.4014.8964.8964.8964h7.5906c.3618 0 .6708-.2148.8124-.5238 0 0 .0114-.021.015-.0312 1.5648-3.3768 4.9824-5.7198 8.9484-5.7198 5.4462 0 9.8616 4.4142 9.8616 9.861s-4.4142 9.861-9.8604 9.861c-3.966 0-7.383-2.343-8.9484-5.7192-.0042-.0108-.0156-.0318-.0156-.0318-.0709-.156-.1852-.2884-.3292-.3812-.1441-.0929-.3118-.1424-.4832-.1426h-7.5906c-.4956 0-.897.4014-.897.8964 0 .0774.0126.1524.0312.2238 2.091 8.1192 9.4614 14.1192 18.2328 14.1192 10.3974 0 18.8256-8.4288 18.8256-18.8256s-8.4282-18.8256-18.8256-18.8256zm49.2252 23.2386h-2.5608c-.0846.0001-.1681.0197-.244.0573-.0758.0375-.142.0921-.1934.1593-1.4874 2.1984-4.0026 3.6444-6.8568 3.6444-4.5702 0-8.2746-3.705-8.2746-8.2746 0-4.5702 3.7044-8.2752 8.2746-8.2752 2.8548 0 5.3694 1.4472 6.8574 3.645.0512.0673.1173.1218.1931.1594.0757.0376.1591.0572.2437.0572h2.5608c.0725.0001.1443-.0141.2113-.0418.067-.0276.1279-.0682.1792-.1194s.092-.112.1199-.179c.0278-.0669.0421-.1387.0422-.2112-.0003-.0862-.0211-.1711-.0606-.2478-1.908-3.7794-5.8236-6.3726-10.3464-6.3726-6.3978 0-11.5854 5.187-11.5854 11.5854 0 6.3978 5.1876 11.5854 11.5854 11.5854 4.5228 0 8.4384-2.5932 10.3458-6.3726.0396-.0766.0606-.1615.0612-.2478-.0001-.0725-.0144-.1442-.0422-.2112-.0279-.0669-.0686-.1277-.1199-.1789s-.1122-.0918-.1792-.1195-.1388-.0419-.2113-.0418zm7.7238-19.8594c0 .5854-.2325 1.1468-.6464 1.5607-.414.4139-.9753.6464-1.5607.6464s-1.1467-.2325-1.5607-.6464c-.4139-.4139-.6464-.9753-.6464-1.5607 0-.5853.2325-1.1467.6464-1.5606.414-.414.9753-.6465 1.5607-.6465s1.1467.2325 1.5607.6465c.4139.4139.6464.9753.6464 1.5606zm-.5514 25.9278v-21.5154h-3.3102v21.5148c.0002.1462.0583.2864.1617.3897.1034.1034.2435.1616.3897.1617h2.2074c.0724.0001.1441-.0141.211-.0417.0669-.0277.1277-.0682.1789-.1194s.0918-.1119.1195-.1788c.0277-.0668.042-.1385.042-.2109zm14.3514-22.053c-3.3384.1572-6.0048 1.7526-7.7322 4.1886v-3.0996c-.0002-.1462-.0583-.2863-.1617-.3897s-.2435-.1615-.3897-.1617h-2.2068c-.1462.0002-.2863.0583-.3897.1617s-.1615.2435-.1617.3897v20.9634c0 .3048.246.5514.5514.5514h2.2068c.0724.0001.1442-.0141.2111-.0418s.1278-.0683.179-.1195.0918-.112.1195-.179c.0277-.0669.0419-.1386.0418-.2111v-10.4808c0-4.3848 3.4116-7.9716 7.7226-8.256.0726 0 .1445-.0143.2116-.0421s.128-.0686.1794-.1199c.0513-.0514.092-.1124.1197-.1795.0278-.0671.042-.1391.0419-.2117v-2.2116c-.0003-.1446-.0574-.2834-.1589-.3864s-.2395-.162-.3841-.1644zm21.982 15.9846h-2.561c-.084 0-.168.0195-.244.0571s-.142.0922-.193.1595c-1.487 2.1984-4.003 3.6444-6.856 3.6444-4.571 0-8.2754-3.705-8.2754-8.2746 0-4.5702 3.7044-8.2752 8.2754-8.2752 2.853 0 5.369 1.4472 6.856 3.645.051.0673.118.1219.193.1595.076.0375.16.0571.244.0571h2.561c.073.0001.144-.0141.211-.0418.067-.0276.128-.0682.18-.1194.051-.0512.092-.112.12-.179.027-.0669.042-.1387.042-.2112 0-.0863-.021-.1713-.061-.2478-1.908-3.7794-5.823-6.3726-10.346-6.3726-6.398 0-11.585 5.187-11.585 11.5854 0 6.3978 5.187 11.5854 11.585 11.5854 4.523 0 8.438-2.5932 10.346-6.3726.039-.0766.06-.1615.061-.2478 0-.0725-.015-.1442-.042-.2112-.028-.0669-.069-.1277-.12-.1789-.052-.0512-.113-.0918-.18-.1195s-.138-.0419-.211-.0418zm6.62-22.6182h-2.207c-.146.0002-.286.0583-.39.1617-.103.1034-.161.2435-.161.3897v28.1352c0 .3048.246.5514.551.5514h2.207c.146 0 .287-.0581.39-.1614.104-.1034.162-.2437.162-.39v-28.1352c0-.1463-.058-.2865-.162-.3899-.103-.1034-.244-.1615-.39-.1615zm15.448 6.6198c-6.399 0-11.586 5.187-11.586 11.5854 0 6.3978 5.187 11.5854 11.586 11.5854 4.522 0 8.437-2.5932 10.345-6.3726.043-.0838.064-.1775.061-.2718-.004-.0943-.032-.1861-.081-.2665-.05-.0804-.119-.1467-.202-.1924-.082-.0457-.175-.0693-.27-.0685h-2.56c-.087 0-.172.0206-.25.0601-.077.0395-.144.0969-.194.1673-1.488 2.1918-4 3.6342-6.849 3.6342-4.196 0-7.661-3.1236-8.201-7.1712h19.219c.141-.0003.277-.0547.38-.1522.102-.0974.163-.2304.17-.3716.01-.192.016-.3858.016-.5796 0-6.399-5.187-11.586-11.584-11.586zm-7.976 9.3786c.966-3.498 4.17-6.0684 7.976-6.0684 3.805 0 7.008 2.5704 7.975 6.0684zm51.603-16.5498c-.878 0-1.72.3488-2.341.9696-.621.6207-.969 1.4627-.969 2.3406s.348 1.7199.969 2.3407 1.463.9695 2.341.9695 1.72-.3487 2.34-.9695c.621-.6208.97-1.4628.97-2.3407s-.349-1.7199-.97-2.3406c-.62-.6208-1.462-.9696-2.34-.9696zm2.759 7.7226v21.5148c-.001.1462-.059.2864-.162.3897-.103.1034-.244.1616-.39.1617h-4.413c-.073.0001-.145-.0141-.211-.0418-.067-.0277-.128-.0683-.179-.1195-.052-.0512-.092-.112-.12-.179-.028-.0669-.042-.1386-.042-.2111v-21.5148zm-19.908 22.6194c5.409 0 9.946-3.7056 11.224-8.7144.009-.0367.013-.0744.014-.1122 0-.1463-.058-.2866-.162-.3901-.103-.1035-.243-.1617-.39-.1619h-4.669c-.105.0002-.209.0307-.297.0878-.089.0571-.16.1385-.203.2344l-.002-.0006c-.959 2.088-3.066 3.5394-5.515 3.5394-3.35 0-6.068-2.7162-6.068-6.0678s2.718-6.0678 6.068-6.0678c1.162-.0001 2.299.3334 3.277.9609.978.6274 1.755 1.5224 2.238 2.5785l.002-.0012c.043.096.114.1775.203.2347.088.0572.191.0878.297.0881h4.669c.147-.0001.287-.0584.39-.1619.104-.1035.162-.2438.162-.3901-.001-.0371-.006-.0741-.014-.1104-1.276-5.01-5.815-8.7162-11.224-8.7162-6.396 0-11.585 5.1876-11.585 11.5854.001 6.3984 5.189 11.5854 11.585 11.5854z"/></g></svg>