<svg fill="none" height="35" viewBox="0 0 48 35" width="48" xmlns="http://www.w3.org/2000/svg"><path d="m47.5681 23.776c0 1.4933-.2987 2.8747-.896 4.144-.5227 1.2693-1.2694 2.3893-2.24 3.36-.9707.896-2.128 1.6427-3.472 2.24-1.2694.5227-2.6134.784-4.032.784-1.4934 0-2.8747-.2613-4.144-.784-1.2694-.5973-2.3894-1.344-3.36-2.24-.9707-.9707-1.7547-2.0907-2.352-3.36-.5227-1.2693-.784-2.6507-.784-4.144v-13.664c0-2.83735.9333-5.22668 2.8-7.16802 1.9413-1.94133 4.3306-2.9119976 7.168-2.9119976h7.168v8.7360076h-5.376c-2.016 0-3.024 1.11999-3.024 3.36001v1.344c.2986-.1493.6346-.224 1.008-.224.3733-.0747.7466-.112 1.12-.112 3.136 0 5.6373 1.008 7.504 3.024 1.9413 1.9413 2.912 4.48 2.912 7.616zm-25.312 0c0 1.4933-.2987 2.8747-.896 4.144-.5227 1.2693-1.2694 2.3893-2.24 3.36-.9707.896-2.128 1.6427-3.472 2.24-1.2694.5227-2.6134.784-4.032.784-1.4934 0-2.87469-.2613-4.14403-.784-1.26933-.5973-2.38933-1.344-3.36-2.24-.97066-.9707-1.75466-2.0907-2.352-3.36-.52266-1.2693-.783996-2.6507-.783996-4.144v-13.664c0-2.83735.933336-5.22668 2.799996-7.16802 1.94134-1.94133 4.33067-2.9119976 7.16803-2.9119976h7.168v8.7360076h-5.376c-2.016 0-3.02402 1.11999-3.02402 3.36001v1.344c.29862-.1493.63462-.224 1.00802-.224.3733-.0747.7466-.112 1.12-.112 3.136 0 5.6373 1.008 7.504 3.024 1.9413 1.9413 2.912 4.48 2.912 7.616z" fill="#5affb4"/></svg>