<svg fill="none" height="88" viewBox="0 0 184 88" width="184" xmlns="http://www.w3.org/2000/svg"><g fill="#808080"><path d="m28.8566 27.1961c12.4247-.9652 19.9351-7.0656 22.2753-15.1961-16.3968 7.7898-36.8568-1.7399-40.7292 15.4723l-1.98514 9.1758c3.45334-5.5245 8.01484-8.4867 20.43904-9.452zm-6.4604 1.5625c-6.1066.9071-11.0049 3.8279-13.75383 8.958-.88502 1.6507-1.19583 3.4248-1.19583 3.4248l-1.40511 6.4947c1.76019-3.2364 4.90807-7.3727 13.15807-9.3409.1856-1.0299 1.3121-6.9333 3.1967-9.5366zm-17.63691 24.8038-2.14614 9.9205c5.68621-11.1632 17.92305-13.3298 19.43415-13.6555 10.656-2.2976 15.7864-7.7529 17.8265-14.8422-9.2978 5.4212-31.00067-1.386-35.11451 18.5772zm-3.17976 14.7003-1.57953 7.3013c12.6018-.7315 13.9917-13.2184 16.0479-23.1379-3.9206 1.411-12.56104 6.9405-14.46837 15.8366z"/><path clip-rule="evenodd" d="m74.3082 32.7626v8.5833h12.0617v4.2699h-12.0617v13.376h-4.5123v-30.4991h17.5719v4.2699zm26.6398 5.4462c2.083 0 3.956.4648 5.619 1.3943s2.972 2.2075 3.926 3.8342c.955 1.6266 1.432 3.4565 1.432 5.4898s-.477 3.8632-1.432 5.4899c-.954 1.6266-2.263 2.9046-3.926 3.8341s-3.536 1.3943-5.619 1.3943c-2.0825 0-3.9554-.4648-5.6186-1.3943s-2.972-2.2075-3.9266-3.8341c-.9545-1.6267-1.4317-3.4566-1.4317-5.4899s.4772-3.8632 1.4317-5.4898c.9546-1.6267 2.2634-2.9047 3.9266-3.8342s3.5361-1.3943 5.6186-1.3943zm0 4.1828c-1.909 0-3.4637.5954-4.6641 1.7864-1.2004 1.1909-1.8005 2.7739-1.8005 4.7491s.6001 3.5582 1.8005 4.7492c1.2004 1.1909 2.7551 1.7863 4.6641 1.7863s3.464-.5954 4.664-1.7863c1.201-1.191 1.801-2.774 1.801-4.7492s-.6-3.5582-1.801-4.7491c-1.2-1.191-2.755-1.7864-4.664-1.7864zm26.163.8714h-.651c-2.112 0-3.702.5446-4.773 1.6339-1.07 1.0892-1.605 2.8102-1.605 5.163v8.9319h-4.252v-20.1294h4.252v4.4006h.087c.491-1.5395 1.309-2.7595 2.451-3.6599 1.143-.9005 2.538-1.3507 4.187-1.3507h.304zm11.975-5.0542c3.008 0 5.358.9658 7.05 2.8975 1.692 1.9316 2.538 4.5385 2.538 7.8208v.6971h-15.532c.086 1.7719.687 3.2024 1.8 4.2917 1.114 1.0893 2.538 1.6339 4.274 1.6339 1.446 0 2.654-.3413 3.623-1.0239s1.815-1.5177 2.538-2.5053l2.994 2.8321c-2.314 3.1951-5.337 4.7927-9.068 4.7927-2.112 0-3.956-.443-5.532-1.3289-1.577-.8859-2.792-2.1349-3.645-3.747-.853-1.6122-1.28-3.4784-1.28-5.5988 0-2.0333.412-3.8705 1.237-5.5117.824-1.6411 2.01-2.9264 3.558-3.8559 1.547-.9295 3.362-1.3943 5.445-1.3943zm-.261 3.9214c-1.475 0-2.69.3776-3.644 1.1328-.955.7552-1.562 1.8444-1.822 3.2677h10.716c-.087-1.3942-.6-2.4762-1.54-3.2459-.94-.7698-2.177-1.1546-3.71-1.1546zm19.959 17.5152c-1.418 0-2.842-.1888-4.274-.5664s-2.726-.9005-3.883-1.5686l1.909-3.7906c2.198 1.2781 4.324 1.9171 6.378 1.9171 2.082 0 3.124-.6245 3.124-1.8735 0-.4357-.152-.8206-.456-1.1546s-.86-.7044-1.67-1.111l-3.645-1.7864c-2.806-1.3362-4.209-3.2678-4.209-5.7949 0-1.8299.63-3.2387 1.888-4.2263s3.001-1.4814 5.228-1.4814c1.128 0 2.292.138 3.493.414 1.2.2759 2.35.6608 3.449 1.1546l-1.735 3.7034c-2.025-.8714-3.804-1.3071-5.337-1.3071-1.649 0-2.473.5083-2.473 1.525 0 .4938.166.915.499 1.2635.332.3486.933.7262 1.8 1.1328l3.732 1.7864c1.33.61 2.328 1.3725 2.993 2.2875.666.9149.998 2.0405.998 3.3767 0 2.0042-.701 3.5219-2.104 4.553-1.403 1.0312-3.305 1.5468-5.705 1.5468zm17.138-17.1667v10.544c0 .7262.166 1.2563.499 1.5903.332.3341.86.5011 1.583.5011h1.041v3.9213h-1.952c-1.764 0-3.109-.4502-4.035-1.3507-.926-.9004-1.388-2.1785-1.388-3.8342v-11.3718h-3.558v-3.6163h3.558v-8.0605h4.252v8.0605h4.078v3.6163z" fill-rule="evenodd"/></g></svg>