<svg width="662" height="204" viewBox="0 0 662 204" fill="none" xmlns="http://www.w3.org/2000/svg">
<path d="M611.5 141.1C616.7 138.2 624.4 135.9 632 135.9C635.7 135.9 639.4 136.5 642.9 137.7C650 140.3 655.1 145.7 658 153.5C666 175.1 661.1 193.3 645.6 200.1C640.4 202.3 635.4 203.3 630.6 203.3C617.5 203.3 606.2 196.1 599 187.6C594.2 182 592.4 174.9 593.8 167.2C595.8 155.5 604.4 145.1 611.5 141.1Z" fill="#1E1EFF"/>
<path d="M503.9 176.6C489.9 176.6 480 170 480 156.8C480 144.4 489.1 135.9 509.4 135.9C519 135.6 531.4 137.8 537.4 140V154.6C533.6 166.1 519.3 176.6 503.9 176.6ZM497.8 203C521.7 203 535.2 190.1 540.4 183.5L543.4 200.8H568.7V110.9C568.7 70.2 545.6 53.1 508.7 53.1C485.1 53.1 464.2 64.1 454.3 80.1L475.7 95.8C482.6 87 494.1 80.1 507.3 80.1C527.4 80.1 537.6 87 537.6 107.9V118.3C531.8 116.4 520.3 112.8 506.8 112.8C469.4 112.8 449.3 133.1 449.3 159.3C449.4 184.9 469.8 203 497.8 203ZM357.8 174.9C342.7 174.9 320.9 163.1 320.9 127.3C320.9 92.9 340.7 80.8 358 80.8C375.1 80.8 393.2 95.9 393.2 127.3C393.3 160.4 373.2 174.9 357.8 174.9ZM353.4 203C369.9 203 388.6 194.5 394.9 181.3L398.2 200.8H424.3V0.0999985H390.8V72.7C385.8 62.8 369.9 53.2 352.3 53.2C322.3 53.2 288.2 75.2 288.2 127.4C288.3 179.3 323.7 203 353.4 203ZM202.2 176.6C188.2 176.6 178.3 170 178.3 156.8C178.3 144.4 187.4 135.9 207.7 135.9C217.3 135.6 229.7 137.8 235.8 140V154.6C231.9 166.1 217.6 176.6 202.2 176.6ZM196.1 203C220 203 233.5 190.1 238.7 183.5L241.7 200.8H267V110.9C267 70.2 243.9 53.1 207 53.1C183.4 53.1 162.4 64.1 152.6 80.1L174.1 95.8C181 87 192.5 80.1 205.7 80.1C225.8 80.1 235.9 87 235.9 107.9V118.3C230.1 116.4 218.6 112.8 205.1 112.8C167.7 112.8 147.6 133.1 147.6 159.3C147.7 184.9 168.1 203 196.1 203ZM0.899902 200.8H33.5999V113.9C33.5999 92.7 46.1999 79.5 63.5999 79.5C82.2999 79.5 92.9999 91.9 92.9999 113.9V200.8H125.4V112.8C125.4 71.3 101.8 51.7 72.2999 51.7C54.1999 51.7 35.6999 61.3 29.8999 72.9L25.4999 55.8H0.899902V200.8Z" fill="#030303"/>
</svg>
