<svg fill="none" height="204" viewBox="0 0 662 204" width="662" xmlns="http://www.w3.org/2000/svg"><path d="m595.768 167.558.001-.011.002-.01c.939-5.49 3.441-10.736 6.589-15.105 3.156-4.38 6.874-7.759 10.118-9.587 4.916-2.741 12.28-4.945 19.522-4.945 3.478 0 6.952.563 10.232 1.685 6.469 2.376 11.172 7.292 13.893 14.612 3.897 10.523 4.584 20.039 2.555 27.637-2.014 7.542-6.716 13.286-13.872 16.429-4.966 2.1-9.698 3.037-14.208 3.037-12.357 0-23.141-6.807-30.074-14.993l-.008-.009c-4.379-5.109-6.051-11.588-4.75-18.74z" stroke="#030303" stroke-width="4"/><path d="m503.9 176.6c-14 0-23.9-6.6-23.9-19.8 0-12.4 9.1-20.9 29.4-20.9 9.6-.3 22 1.9 28 4.1v14.6c-3.8 11.5-18.1 22-33.5 22zm-6.1 26.4c23.9 0 37.4-12.9 42.6-19.5l3 17.3h25.3v-89.9c0-40.7-23.1-57.8-60-57.8-23.6 0-44.5 11-54.4 27l21.4 15.7c6.9-8.8 18.4-15.7 31.6-15.7 20.1 0 30.3 6.9 30.3 27.8v10.4c-5.8-1.9-17.3-5.5-30.8-5.5-37.4 0-57.5 20.3-57.5 46.5.1 25.6 20.5 43.7 48.5 43.7zm-140-28.1c-15.1 0-36.9-11.8-36.9-47.6 0-34.4 19.8-46.5 37.1-46.5 17.1 0 35.2 15.1 35.2 46.5.1 33.1-20 47.6-35.4 47.6zm-4.4 28.1c16.5 0 35.2-8.5 41.5-21.7l3.3 19.5h26.1v-200.7000015h-33.5v72.6000015c-5-9.9-20.9-19.5-38.5-19.5-30 0-64.1 22-64.1 74.2.1 51.9 35.5 75.6 65.2 75.6zm-151.2-26.4c-14 0-23.9-6.6-23.9-19.8 0-12.4 9.1-20.9 29.4-20.9 9.6-.3 22 1.9 28.1 4.1v14.6c-3.9 11.5-18.2 22-33.6 22zm-6.1 26.4c23.9 0 37.4-12.9 42.6-19.5l3 17.3h25.3v-89.9c0-40.7-23.1-57.8-60-57.8-23.6 0-44.6 11-54.4 27l21.5 15.7c6.9-8.8 18.4-15.7 31.6-15.7 20.1 0 30.2 6.9 30.2 27.8v10.4c-5.8-1.9-17.3-5.5-30.8-5.5-37.4 0-57.5 20.3-57.5 46.5.1 25.6 20.5 43.7 48.5 43.7zm-195.200098-2.2h32.699998v-86.9c0-21.2 12.6-34.4 30-34.4 18.7 0 29.4 12.4 29.4 34.4v86.9h32.4001v-88c0-41.5-23.6-61.1-53.1001-61.1-18.1 0-36.6 9.6-42.4 21.2l-4.4-17.1h-24.599998z" fill="#030303"/></svg>