<svg fill="none" height="204" viewBox="0 0 662 204" width="662" xmlns="http://www.w3.org/2000/svg"><g fill="#fcfcfc"><path d="m632 138.9c3.6 0 6.9.5 9.9 1.6 6.3 2.3 10.8 7 13.4 14 7.4 19.9 3.1 36.7-10.8 42.8-4.5 2-9.2 3-13.8 3-15.1 0-25.5-10.3-29.3-14.7-4.2-4.9-5.8-11.1-4.6-17.9 1.8-10.3 9.7-20.3 16.2-24 5.2-2.9 12.5-4.8 19-4.8zm0-3c-7.6 0-15.3 2.3-20.5 5.2-7.1 4-15.7 14.4-17.7 26.1-1.4 7.7.4 14.8 5.2 20.4 7.2 8.5 18.5 15.7 31.6 15.7 4.8 0 9.8-1 15-3.2 15.5-6.8 20.4-25 12.4-46.6-2.9-7.8-8-13.2-15.1-15.8-3.5-1.2-7.2-1.8-10.9-1.8z"/><path d="m503.9 176.6c-14 0-23.9-6.6-23.9-19.8 0-12.4 9.1-20.9 29.4-20.9 9.6-.3 22 1.9 28 4.1v14.6c-3.8 11.5-18.1 22-33.5 22zm-6.1 26.4c23.9 0 37.4-12.9 42.6-19.5l3 17.3h25.3v-89.9c0-40.7-23.1-57.8-60-57.8-23.6 0-44.5 11-54.4 27l21.4 15.7c6.9-8.8 18.4-15.7 31.6-15.7 20.1 0 30.3 6.9 30.3 27.8v10.4c-5.8-1.9-17.3-5.5-30.8-5.5-37.4 0-57.5 20.3-57.5 46.5.1 25.6 20.5 43.7 48.5 43.7zm-140-28.1c-15.1 0-36.9-11.8-36.9-47.6 0-34.4 19.8-46.5 37.1-46.5 17.1 0 35.2 15.1 35.2 46.5.1 33.1-20 47.6-35.4 47.6zm-4.4 28.1c16.5 0 35.2-8.5 41.5-21.7l3.3 19.5h26.1v-200.7000015h-33.5v72.6000015c-5-9.9-20.9-19.5-38.5-19.5-30 0-64.1 22-64.1 74.2.1 51.9 35.5 75.6 65.2 75.6zm-151.2-26.4c-14 0-23.9-6.6-23.9-19.8 0-12.4 9.1-20.9 29.4-20.9 9.6-.3 22 1.9 28.1 4.1v14.6c-3.9 11.5-18.2 22-33.6 22zm-6.1 26.4c23.9 0 37.4-12.9 42.6-19.5l3 17.3h25.3v-89.9c0-40.7-23.1-57.8-60-57.8-23.6 0-44.6 11-54.4 27l21.5 15.7c6.9-8.8 18.4-15.7 31.6-15.7 20.1 0 30.2 6.9 30.2 27.8v10.4c-5.8-1.9-17.3-5.5-30.8-5.5-37.4 0-57.5 20.3-57.5 46.5.1 25.6 20.5 43.7 48.5 43.7zm-195.200098-2.2h32.699998v-86.9c0-21.2 12.6-34.4 30-34.4 18.7 0 29.4 12.4 29.4 34.4v86.9h32.4001v-88c0-41.5-23.6-61.1-53.1001-61.1-18.1 0-36.6 9.6-42.4 21.2l-4.4-17.1h-24.599998z"/></g></svg>