<svg width="184" height="88" viewBox="0 0 184 88" fill="none" xmlns="http://www.w3.org/2000/svg">
<g clip-path="url(#clip0)">
<path fill-rule="evenodd" clip-rule="evenodd" d="M47.6917 45.0943L44.2781 41.6743C44.0071 41.4027 43.8549 41.0346 43.8551 40.6509V36.4646C43.8551 32.5959 43.4527 31.1931 42.698 29.7789C41.9604 28.3821 40.8199 27.2394 39.4246 26.499C38.0141 25.7417 36.614 25.3393 32.7543 25.3393H27.2321C27.1751 25.339 27.1194 25.3218 27.072 25.2899C27.0247 25.258 26.9879 25.2129 26.9662 25.1601C26.9444 25.1073 26.9388 25.0493 26.95 24.9933C26.9612 24.9374 26.9887 24.8859 27.029 24.8456L30.4426 21.4243C30.7126 21.153 31.0803 21 31.4634 21H33.383C38.5297 21 40.3966 21.5374 42.2789 22.5454C44.1391 23.5329 45.6594 25.0569 46.6426 26.9194C47.6493 28.8056 48.1854 30.6763 48.1854 35.8333V44.8911C48.1854 44.9483 48.1684 45.0042 48.1366 45.0517C48.1048 45.0993 48.0596 45.1363 48.0068 45.1582C47.954 45.18 47.8959 45.1858 47.8398 45.1746C47.7837 45.1635 47.7322 45.136 47.6917 45.0956V45.0943ZM24.1426 66.7933L27.5561 63.372C27.8261 63.1007 28.1939 62.9477 28.577 62.9477H32.7543C36.614 62.9477 38.0129 62.5453 39.4246 61.788C40.8199 61.0476 41.9604 59.9049 42.698 58.5081C43.4527 57.0939 43.8551 55.6911 43.8551 51.8224V46.2887C43.8554 46.2318 43.8725 46.1762 43.9043 46.129C43.936 46.0817 43.9809 46.0449 44.0335 46.0231C44.0861 46.0012 44.1439 45.9954 44.1998 46.0063C44.2556 46.0172 44.3071 46.0443 44.3476 46.0843L47.7624 49.5056C48.0324 49.7769 48.1854 50.1459 48.1854 50.529V52.4537C48.1854 57.6107 47.6493 59.4814 46.6426 61.3676C45.6594 63.2301 44.1391 64.7541 42.2789 65.7416C40.3966 66.7483 38.5297 67.2857 33.383 67.2857H24.3457C24.2886 67.2854 24.2329 67.2682 24.1856 67.2363C24.1383 67.2045 24.1014 67.1593 24.0797 67.1065C24.058 67.0537 24.0524 66.9957 24.0636 66.9397C24.0748 66.8838 24.1022 66.8324 24.1426 66.792V66.7933ZM2.49243 43.1901L5.90857 46.6114C6.17857 46.8827 6.33157 47.2517 6.33157 47.6349V51.8211C6.33157 55.6899 6.73271 57.0926 7.48871 58.5069C8.22601 59.9034 9.36604 61.0461 10.7609 61.7867C12.1726 62.544 13.5727 62.9464 17.4324 62.9464H22.9533C23.0106 62.9462 23.0666 62.963 23.1144 62.9947C23.1621 63.0264 23.1993 63.0716 23.2214 63.1244C23.2434 63.1773 23.2492 63.2356 23.2381 63.2918C23.227 63.348 23.1995 63.3996 23.159 63.4401L19.7429 66.8614C19.4729 67.1327 19.1051 67.2857 18.7233 67.2857H16.8024C11.6557 67.2857 9.79014 66.7483 7.90786 65.7403C6.04717 64.753 4.52633 63.229 3.54286 61.3663C2.53614 59.4801 2 57.6094 2 52.4524V43.3946C2.0003 43.3377 2.01738 43.2821 2.04911 43.2348C2.08084 43.1876 2.1258 43.1507 2.17836 43.1289C2.23093 43.1071 2.28877 43.1013 2.34463 43.1122C2.4005 43.123 2.45191 43.1502 2.49243 43.1901V43.1901ZM22.6293 24.915C22.358 25.1863 21.9916 25.3393 21.6084 25.3393H17.4311C13.5714 25.3393 12.1713 25.7417 10.7596 26.499C9.36428 27.2394 8.22378 28.3821 7.48614 29.7789C6.73143 31.1931 6.329 32.5959 6.329 36.4646V41.9983C6.3287 42.0552 6.31162 42.1108 6.27989 42.158C6.24816 42.2053 6.2032 42.2421 6.15064 42.2639C6.09807 42.2858 6.04023 42.2916 5.98437 42.2807C5.9285 42.2698 5.87709 42.2427 5.83657 42.2027L2.42429 38.7814C2.15275 38.51 2.00014 38.1419 2 37.758V35.8333C2 30.6763 2.53614 28.8056 3.54286 26.9194C4.52599 25.0569 6.04636 23.5329 7.90657 22.5454C9.78886 21.5374 11.6557 21 16.8011 21H25.8397C25.8968 21.0003 25.9525 21.0175 25.9998 21.0494C26.0471 21.0813 26.084 21.1264 26.1057 21.1792C26.1274 21.232 26.133 21.29 26.1219 21.346C26.1107 21.4019 26.0832 21.4533 26.0429 21.4937L22.6293 24.915ZM40.4801 37.8891L35.8259 33.4303C35.5173 33.1217 35.1573 32.898 34.7729 32.7579C34.4467 32.6343 34.1008 32.5711 33.752 32.5714H20.0129C19.9557 32.5714 19.8998 32.5544 19.8523 32.5226C19.8047 32.4908 19.7677 32.4456 19.7458 32.3928C19.724 32.34 19.7182 32.2819 19.7294 32.2258C19.7405 32.1697 19.768 32.1182 19.8084 32.0777L23.2271 28.6551C23.4971 28.3851 23.8636 28.2321 24.2467 28.2321H35.1959C38.3844 28.2321 40.9687 30.8229 40.9687 34.0179V37.6809C40.9684 37.7373 40.9516 37.7925 40.9204 37.8395C40.8892 37.8866 40.8448 37.9234 40.7929 37.9456C40.7409 37.9677 40.6836 37.9742 40.6281 37.9641C40.5725 37.9541 40.5211 37.928 40.4801 37.8891V37.8891ZM31.3323 59.5676L35.7809 54.9017C36.0894 54.5931 36.3131 54.2331 36.4533 53.8474C36.5762 53.5207 36.6389 53.1744 36.6384 52.8253V39.0553C36.6385 38.9981 36.6555 38.9422 36.6873 38.8947C36.7191 38.8472 36.7642 38.8101 36.817 38.7883C36.8699 38.7664 36.928 38.7607 36.9841 38.7718C37.0402 38.7829 37.0917 38.8105 37.1321 38.8509L40.547 42.276C40.817 42.5473 40.9687 42.915 40.9687 43.2994V54.2717C40.9687 57.4667 38.3844 60.0574 35.1959 60.0574H31.5406C31.4841 60.0572 31.4289 60.0404 31.3819 60.0091C31.3349 59.9779 31.298 59.9335 31.2759 59.8816C31.2537 59.8296 31.2473 59.7724 31.2573 59.7168C31.2673 59.6612 31.2934 59.6098 31.3323 59.5689V59.5676ZM9.704 50.3966L14.3609 54.8554C14.6681 55.164 15.0294 55.3877 15.4126 55.5279C15.7289 55.6487 16.0734 55.7143 16.4334 55.7143H30.1726C30.2296 55.7146 30.2853 55.7318 30.3327 55.7637C30.38 55.7955 30.4168 55.8407 30.4386 55.8935C30.4603 55.9463 30.4659 56.0043 30.4547 56.0603C30.4435 56.1162 30.416 56.1676 30.3757 56.208L26.9583 59.6306C26.6883 59.9006 26.3206 60.0536 25.9387 60.0536H14.9896C14.2306 60.0527 13.4793 59.9024 12.7784 59.6112C12.0776 59.32 11.4409 58.8936 10.9049 58.3563C10.3688 57.8191 9.94383 57.1815 9.65418 56.48C9.36452 55.7785 9.21587 55.0268 9.21671 54.2679V50.6049C9.21699 50.5484 9.23378 50.4932 9.26503 50.4462C9.29627 50.3992 9.3406 50.3623 9.39255 50.3401C9.44449 50.318 9.50179 50.3115 9.55736 50.3216C9.61293 50.3316 9.66435 50.3577 9.70529 50.3966H9.704ZM18.8531 28.7207L14.4033 33.3879C14.0947 33.6964 13.8723 34.0564 13.7321 34.4421C13.6088 34.7688 13.5457 35.1151 13.5457 35.4643V49.2343C13.5452 49.2911 13.5279 49.3465 13.4961 49.3935C13.4643 49.4406 13.4193 49.4772 13.3668 49.4989C13.3142 49.5206 13.2565 49.5263 13.2008 49.5154C13.145 49.5044 13.0937 49.4773 13.0533 49.4374L9.63843 46.0123C9.36816 45.7408 9.21651 45.3732 9.21671 44.9901V34.0179C9.21671 30.8229 11.801 28.2321 14.9896 28.2321H18.6449C18.7013 28.2324 18.7565 28.2492 18.8035 28.2805C18.8506 28.3117 18.8874 28.356 18.9096 28.408C18.9317 28.4599 18.9382 28.5172 18.9281 28.5728C18.9181 28.6284 18.892 28.6798 18.8531 28.7207V28.7207ZM61.4167 34.3509H62.5327C63.2951 34.3509 63.9136 34.968 63.9136 35.7317V37.038C63.9136 37.0791 63.947 37.1113 63.9869 37.1113C64.6233 35.9863 65.4783 35.1699 66.5557 34.6569C67.6449 34.143 68.8358 33.8811 70.04 33.8906C71.3861 33.8906 72.5973 34.14 73.6734 34.6389C74.7496 35.1364 75.6663 35.8217 76.4249 36.6896C77.1983 37.5868 77.7841 38.6299 78.1477 39.7573C78.5399 40.9337 78.7353 42.2001 78.7353 43.554C78.7458 44.8459 78.5349 46.1301 78.1117 47.3507C77.7268 48.4727 77.136 49.5131 76.3696 50.4184C75.6263 51.2853 74.7073 51.9843 73.6734 52.4691C72.5942 52.974 71.4153 53.2297 70.2239 53.2174C69.392 53.2174 68.6591 53.1274 68.0227 52.9487C67.4341 52.789 66.8675 52.5571 66.3359 52.2583C65.8872 52.0068 65.4688 51.7048 65.0887 51.3583C64.777 51.0734 64.4941 50.7586 64.244 50.4184C64.2149 50.4184 64.187 50.4299 64.1663 50.4504C64.1456 50.4708 64.1338 50.4986 64.1334 50.5277V59.8157C64.1334 60.2624 63.956 60.6908 63.6401 61.0067C63.3242 61.3225 62.8958 61.5 62.4491 61.5H61.4167C61.1955 61.5 60.9765 61.4564 60.7722 61.3718C60.5678 61.2871 60.3821 61.1631 60.2257 61.0067C60.0693 60.8503 59.9453 60.6646 59.8606 60.4603C59.776 60.2559 59.7324 60.0369 59.7324 59.8157V36.0351C59.7324 35.1056 60.4859 34.3509 61.4167 34.3509V34.3509ZM74.333 43.554C74.333 42.8379 74.2173 42.1474 73.9859 41.484C73.7621 40.8338 73.4126 40.234 72.9573 39.7187C72.5007 39.2046 71.9454 38.7874 71.3244 38.4921C70.6893 38.1849 69.968 38.0319 69.1606 38.0319C68.3531 38.0319 67.6306 38.1861 66.9954 38.4921C66.3744 38.7874 65.8192 39.2046 65.3626 39.7187C64.9079 40.2337 64.5588 40.8331 64.3353 41.4827C64.1033 42.1481 63.9859 42.848 63.9881 43.5527C63.9881 44.2701 64.1039 44.9593 64.3353 45.624C64.568 46.2887 64.91 46.8776 65.3639 47.388C65.8203 47.9026 66.3756 48.3202 66.9967 48.6159C67.6319 48.9219 68.3531 49.0761 69.1606 49.0761C69.968 49.0761 70.6893 48.9219 71.3244 48.6159C71.9455 48.3202 72.5008 47.9026 72.9573 47.388C73.4099 46.8776 73.7519 46.2887 73.9859 45.624C74.2173 44.9593 74.333 44.2701 74.333 43.554V43.554ZM85.0803 34.3509H86.3403C87.1451 34.3509 87.7983 35.0027 87.7983 35.8076V37.1923C87.7983 37.2321 87.8304 37.2656 87.8716 37.2656C88.3601 36.1907 89.057 35.3601 89.9621 34.7726C90.8673 34.185 91.9074 33.8906 93.0813 33.8906C93.35 33.8906 93.6136 33.9163 93.8694 33.9677C94.0918 34.0117 94.292 34.1315 94.436 34.3067C94.58 34.4818 94.6587 34.7014 94.6589 34.9281V37.4533C94.6589 37.5879 94.6294 37.7208 94.5725 37.8428C94.5155 37.9647 94.4325 38.0727 94.3292 38.159C94.226 38.2453 94.105 38.308 93.9749 38.3424C93.8448 38.3769 93.7087 38.3823 93.5763 38.3584C93.2314 38.2952 92.8816 38.263 92.531 38.262C91.5024 38.262 90.6783 38.46 90.0547 38.856C89.4311 39.2533 88.9541 39.7059 88.6237 40.2189C88.3124 40.6854 88.0885 41.2047 87.9629 41.7514C87.8523 42.2631 87.7983 42.6463 87.7983 42.9021V51.0729C87.7983 51.5196 87.6208 51.948 87.305 52.2638C86.9891 52.5797 86.5607 52.7571 86.114 52.7571H85.0803C84.6336 52.7571 84.2052 52.5797 83.8893 52.2638C83.5734 51.948 83.396 51.5196 83.396 51.0729V36.0351C83.396 35.1056 84.1494 34.3509 85.0803 34.3509V34.3509ZM99.9753 34.3509H101.009C101.939 34.3509 102.693 35.1056 102.693 36.0351V51.0729C102.693 51.5196 102.516 51.948 102.2 52.2638C101.884 52.5797 101.456 52.7571 101.009 52.7571H99.9753C99.5286 52.7571 99.1002 52.5797 98.7843 52.2638C98.4684 51.948 98.291 51.5196 98.291 51.0729V36.0351C98.291 35.1056 99.0444 34.3509 99.9753 34.3509V34.3509ZM97.6674 28.0997C97.6674 27.3591 97.9297 26.7137 98.4556 26.1634C98.9827 25.6144 99.6487 25.3393 100.455 25.3393C101.262 25.3393 101.941 25.6016 102.491 26.1249C103.042 26.6494 103.317 27.3077 103.317 28.0997C103.317 28.893 103.042 29.5513 102.491 30.0746C101.941 30.5991 101.262 30.8614 100.455 30.8614C99.6487 30.8614 98.9814 30.5863 98.4556 30.0373C98.2024 29.7826 98.0024 29.4802 97.8671 29.1476C97.7318 28.815 97.6639 28.4588 97.6674 28.0997V28.0997ZM116.636 38.5564C115.742 37.9007 114.946 37.5716 114.251 37.5716C113.663 37.5716 113.088 37.7259 112.525 38.0319C111.963 38.3391 111.682 38.8367 111.682 39.5271C111.682 40.0903 111.913 40.4991 112.379 40.755C112.844 41.0096 113.43 41.2281 114.14 41.4069C114.85 41.5856 115.613 41.7707 116.432 41.9623C117.253 42.1551 118.016 42.4483 118.726 42.8443C119.436 43.2403 120.022 43.7829 120.488 44.4746C120.952 45.165 121.184 46.11 121.184 47.3121C121.184 48.4114 120.958 49.3371 120.506 50.0919C120.07 50.829 119.466 51.4532 118.744 51.9137C117.995 52.3849 117.17 52.7221 116.305 52.9101C115.414 53.1133 114.503 53.2163 113.59 53.2174C112.22 53.2174 110.96 53.0117 109.81 52.6041C109.36 52.4434 108.82 52.122 108.19 51.6386C107.998 51.4917 107.84 51.3054 107.727 51.0923C107.614 50.8791 107.548 50.6441 107.533 50.4032C107.519 50.1623 107.556 49.9211 107.643 49.6959C107.73 49.4707 107.864 49.2668 108.037 49.098L108.493 48.6506C108.797 48.3527 109.202 48.1808 109.627 48.1693C110.052 48.1579 110.466 48.3077 110.786 48.5889C111.053 48.8241 111.284 49.0054 111.48 49.1327C112.128 49.5557 112.917 49.7666 113.846 49.7666C114.164 49.7666 114.495 49.728 114.837 49.6509C115.18 49.5737 115.498 49.4464 115.791 49.2677C116.084 49.0877 116.323 48.8653 116.507 48.5966C116.69 48.3279 116.782 48.0154 116.782 47.658C116.782 47.0177 116.549 46.5446 116.084 46.2386C115.62 45.9313 115.032 45.6819 114.323 45.4903C113.564 45.2873 112.8 45.1085 112.03 44.9541C111.232 44.795 110.46 44.5236 109.738 44.148C109.033 43.7814 108.428 43.2483 107.976 42.5949C107.512 41.9301 107.279 41.0096 107.279 39.8344C107.279 38.8123 107.481 37.9239 107.884 37.1691C108.269 36.4369 108.815 35.8013 109.481 35.31C110.165 34.8124 110.937 34.4478 111.756 34.2351C112.605 34.0063 113.481 33.8904 114.36 33.8906C115.534 33.8906 116.696 34.1014 117.845 34.5231C118.262 34.6761 118.726 34.959 119.239 35.3717C119.427 35.5228 119.58 35.7124 119.688 35.9276C119.796 36.1428 119.856 36.3787 119.866 36.6194C119.875 36.8601 119.832 37.0999 119.741 37.3227C119.649 37.5455 119.511 37.7461 119.336 37.911L118.788 38.4266C118.501 38.6965 118.128 38.8573 117.735 38.881C117.342 38.9048 116.953 38.7899 116.636 38.5564V38.5564ZM126.647 34.3509H127.461C128.391 34.3509 129.146 35.1056 129.146 36.0351V37.227C129.627 36.3226 130.297 35.5314 131.109 34.9063C131.977 34.2287 133.144 33.8906 134.612 33.8906C137.377 33.8906 139.21 35.0284 140.115 37.3029C140.752 36.1277 141.546 35.265 142.5 34.7147C143.454 34.1657 144.591 33.8906 145.913 33.8906C147.086 33.8906 148.076 34.095 148.884 34.5039C149.669 34.8935 150.344 35.4734 150.847 36.1907C151.349 36.9069 151.709 37.7439 151.928 38.703C152.15 39.6621 152.259 40.6907 152.259 41.7887V51.0716C152.259 51.5183 152.081 51.9467 151.766 52.2625C151.45 52.5784 151.021 52.7559 150.575 52.7559H149.541C149.094 52.7559 148.666 52.5784 148.35 52.2625C148.034 51.9467 147.857 51.5183 147.857 51.0716V42.3261C147.857 41.7643 147.808 41.2204 147.71 40.6971C147.626 40.209 147.451 39.7408 147.196 39.3163C146.953 38.9224 146.612 38.5989 146.206 38.3777C145.789 38.1463 145.252 38.0319 144.591 38.0319C143.907 38.0319 143.326 38.1656 142.849 38.4343C142.379 38.6959 141.977 39.0635 141.675 39.5079C141.361 39.9735 141.137 40.4937 141.014 41.0417C140.88 41.6136 140.812 42.199 140.812 42.7864V51.0729C140.812 51.294 140.769 51.5131 140.684 51.7174C140.599 51.9218 140.475 52.1074 140.319 52.2638C140.162 52.4202 139.977 52.5443 139.772 52.6289C139.568 52.7136 139.349 52.7571 139.128 52.7571H138.094C137.647 52.7571 137.219 52.5797 136.903 52.2638C136.587 51.948 136.41 51.5196 136.41 51.0729V41.79C136.41 40.6393 136.178 39.7251 135.713 39.0476C135.248 38.3713 134.479 38.0319 133.401 38.0319C132.668 38.0319 132.05 38.1604 131.549 38.415C131.047 38.6721 130.632 39.0167 130.301 39.4513C129.966 39.8971 129.722 40.4054 129.585 40.9466C129.437 41.5228 129.364 42.1156 129.367 42.7106V51.0729C129.367 51.2941 129.323 51.5133 129.238 51.7177C129.154 51.9221 129.029 52.1079 128.873 52.2643C128.716 52.4207 128.531 52.5447 128.326 52.6293C128.122 52.7139 127.902 52.7573 127.681 52.7571H126.647C126.201 52.7571 125.772 52.5797 125.456 52.2638C125.141 51.948 124.963 51.5196 124.963 51.0729V36.0351C124.963 35.1056 125.718 34.3509 126.647 34.3509V34.3509ZM159.374 34.3509H160.406C161.337 34.3509 162.091 35.1056 162.091 36.0351V51.0729C162.091 51.5196 161.913 51.948 161.597 52.2638C161.282 52.5797 160.853 52.7571 160.406 52.7571H159.374C158.927 52.7571 158.499 52.5797 158.183 52.2638C157.867 51.948 157.69 51.5196 157.69 51.0729V36.0351C157.69 35.1056 158.443 34.3509 159.374 34.3509V34.3509ZM157.065 28.0997C157.065 27.3591 157.328 26.7137 157.854 26.1634C158.38 25.6144 159.046 25.3393 159.854 25.3393C160.661 25.3393 161.34 25.6016 161.89 26.1249C162.44 26.6494 162.716 27.3077 162.716 28.0997C162.716 28.893 162.44 29.5513 161.89 30.0746C161.34 30.5991 160.661 30.8614 159.854 30.8614C159.046 30.8614 158.38 30.5863 157.854 30.0373C157.601 29.7827 157.401 29.4804 157.265 29.1477C157.13 28.8151 157.061 28.4589 157.065 28.0997ZM178.602 38.865C178.45 38.7436 178.291 38.6319 178.125 38.5307C177.606 38.2106 177.009 38.0381 176.399 38.0319C175.593 38.0319 174.871 38.1861 174.236 38.4921C173.615 38.7874 173.059 39.2046 172.603 39.7187C172.148 40.2337 171.799 40.8331 171.575 41.4827C171.343 42.148 171.225 42.848 171.227 43.5527C171.227 44.2701 171.343 44.9593 171.575 45.624C171.807 46.2887 172.15 46.8776 172.604 47.388C173.06 47.9025 173.615 48.32 174.236 48.6159C174.871 48.9219 175.593 49.0761 176.399 49.0761C177.085 49.0761 177.721 48.9283 178.307 48.6351C178.427 48.5747 178.556 48.4937 178.693 48.3921C179.031 48.1432 179.45 48.0295 179.868 48.0735C180.286 48.1175 180.672 48.316 180.951 48.63L181.619 49.3809C181.778 49.5587 181.895 49.7696 181.961 49.9982C182.028 50.2268 182.043 50.4673 182.005 50.7024C181.967 50.9376 181.878 51.1613 181.743 51.3575C181.608 51.5536 181.431 51.7173 181.225 51.8366C180.165 52.454 179.003 52.8764 177.794 53.0837C177.256 53.1724 176.792 53.2174 176.399 53.2174C175.12 53.2249 173.851 52.9906 172.658 52.527C171.52 52.0901 170.483 51.4246 169.612 50.5714C168.738 49.7004 168.046 48.6642 167.577 47.523C167.075 46.3337 166.825 45.0107 166.825 43.554C166.825 42.0973 167.075 40.7743 167.577 39.585C168.046 38.4438 168.738 37.4076 169.612 36.5366C170.483 35.6834 171.52 35.0179 172.658 34.581C173.851 34.1174 175.12 33.8831 176.399 33.8906C177.526 33.8906 178.656 34.1143 179.794 34.5617C180.227 34.7327 180.739 35.0374 181.328 35.4759C181.519 35.6184 181.678 35.8001 181.794 36.0088C181.91 36.2175 181.98 36.4484 182 36.6864C182.02 36.9243 181.989 37.1638 181.91 37.3889C181.83 37.614 181.704 37.8196 181.538 37.992L180.857 38.703C180.568 39.0049 180.177 39.1887 179.761 39.2186C179.344 39.2486 178.931 39.1225 178.602 38.865V38.865Z" fill="#808080"/>
</g>
<defs>
<clipPath id="clip0">
<rect x="2" y="21" width="180" height="46.2857" fill="white"/>
</clipPath>
</defs>
</svg>
