<svg fill="none" height="88" viewBox="0 0 184 88" width="184" xmlns="http://www.w3.org/2000/svg" xmlns:xlink="http://www.w3.org/1999/xlink"><clipPath id="a"><path d="m2 21h180v46.2857h-180z"/></clipPath><g clip-path="url(#a)"><path clip-rule="evenodd" d="m47.6917 45.0943-3.4136-3.42c-.271-.2716-.4232-.6397-.423-1.0234v-4.1863c0-3.8687-.4024-5.2715-1.1571-6.6857-.7376-1.3968-1.8781-2.5395-3.2734-3.2799-1.4105-.7573-2.8106-1.1597-6.6703-1.1597h-5.5222c-.057-.0003-.1127-.0175-.1601-.0494-.0473-.0319-.0841-.077-.1058-.1298-.0218-.0528-.0274-.1108-.0162-.1668.0112-.0559.0387-.1074.079-.1477l3.4136-3.4213c.27-.2713.6377-.4243 1.0208-.4243h1.9196c5.1467 0 7.0136.5374 8.8959 1.5454 1.8602.9875 3.3805 2.5115 4.3637 4.374 1.0067 1.8862 1.5428 3.7569 1.5428 8.9139v9.0578c0 .0572-.017.1131-.0488.1606-.0318.0476-.077.0846-.1298.1065-.0528.0218-.1109.0276-.167.0164-.0561-.0111-.1076-.0386-.1481-.079zm-23.5491 21.699 3.4135-3.4213c.27-.2713.6378-.4243 1.0209-.4243h4.1773c3.8597 0 5.2586-.4024 6.6703-1.1597 1.3953-.7404 2.5358-1.8831 3.2734-3.2799.7547-1.4142 1.1571-2.817 1.1571-6.6857v-5.5337c.0003-.0569.0174-.1125.0492-.1597.0317-.0473.0766-.0841.1292-.1059.0526-.0219.1104-.0277.1663-.0168.0558.0109.1073.038.1478.078l3.4148 3.4213c.27.2713.423.6403.423 1.0234v1.9247c0 5.157-.5361 7.0277-1.5428 8.9139-.9832 1.8625-2.5035 3.3865-4.3637 4.374-1.8823 1.0067-3.7492 1.5441-8.8959 1.5441h-9.0373c-.0571-.0003-.1128-.0175-.1601-.0494-.0473-.0318-.0842-.077-.1059-.1298s-.0273-.1108-.0161-.1668c.0112-.0559.0386-.1073.079-.1477zm-21.65017-23.6032 3.41614 3.4213c.27.2713.423.6403.423 1.0235v4.1862c0 3.8688.40114 5.2715 1.15714 6.6858.7373 1.3965 1.87733 2.5392 3.27219 3.2798 1.4117.7573 2.8118 1.1597 6.6715 1.1597h5.5209c.0573-.0002.1133.0166.1611.0483.0477.0317.0849.0769.107.1297.022.0529.0278.1112.0167.1674s-.0386.1078-.0791.1483l-3.4161 3.4213c-.27.2713-.6378.4243-1.0196.4243h-1.9209c-5.1467 0-7.01226-.5374-8.89454-1.5454-1.86069-.9873-3.38153-2.5113-4.365-4.374-1.00672-1.8862-1.54286-3.7569-1.54286-8.9139v-9.0578c.0003-.0569.01738-.1125.04911-.1598.03173-.0472.07669-.0841.12925-.1059.05257-.0218.11041-.0276.16627-.0167.05587.0108.10728.038.1478.0779zm20.13687-18.2751c-.2713.2713-.6377.4243-1.0209.4243h-4.1773c-3.8597 0-5.2598.4024-6.6715 1.1597-1.39532.7404-2.53582 1.8831-3.27346 3.2799-.75471 1.4142-1.15714 2.817-1.15714 6.6857v5.5337c-.0003.0569-.01738.1125-.04911.1597-.03173.0473-.07669.0841-.12925.1059-.05257.0219-.11041.0277-.16627.0168-.05587-.0109-.10728-.038-.1478-.078l-3.41228-3.4213c-.27154-.2714-.42415-.6395-.42429-1.0234v-1.9247c0-5.157.53614-7.0277 1.54286-8.9139.98313-1.8625 2.5035-3.3865 4.36371-4.374 1.88229-1.008 3.74913-1.5454 8.89453-1.5454h9.0386c.0571.0003.1128.0175.1601.0494s.0842.077.1059.1298.0273.1108.0162.1668c-.0112.0559-.0387.1073-.079.1477zm17.8508 12.9741-4.6542-4.4588c-.3086-.3086-.6686-.5323-1.053-.6724-.3262-.1236-.6721-.1868-1.0209-.1865h-13.7391c-.0572 0-.1131-.017-.1606-.0488-.0476-.0318-.0846-.077-.1065-.1298-.0218-.0528-.0276-.1109-.0164-.167.0111-.0561.0386-.1076.079-.1481l3.4187-3.4226c.27-.27.6365-.423 1.0196-.423h10.9492c3.1885 0 5.7728 2.5908 5.7728 5.7858v3.663c-.0003.0564-.0171.1116-.0483.1586-.0312.0471-.0756.0839-.1275.1061-.052.0221-.1093.0286-.1648.0185-.0556-.01-.107-.0361-.148-.075zm-9.1478 21.6785 4.4486-4.6659c.3085-.3086.5322-.6686.6724-1.0543.1229-.3267.1856-.673.1851-1.0221v-13.77c.0001-.0572.0171-.1131.0489-.1606s.0769-.0846.1297-.1064c.0529-.0219.111-.0276.1671-.0165s.1076.0387.148.0791l3.4149 3.4251c.27.2713.4217.639.4217 1.0234v10.9723c0 3.195-2.5843 5.7857-5.7728 5.7857h-3.6553c-.0565-.0002-.1117-.017-.1587-.0483-.047-.0312-.0839-.0756-.106-.1275-.0222-.052-.0286-.1092-.0186-.1648s.0361-.107.075-.1479zm-21.6283-9.171 4.6569 4.4588c.3072.3086.6685.5323 1.0517.6725.3163.1208.6608.1864 1.0208.1864h13.7392c.057.0003.1127.0175.1601.0494.0473.0318.0841.077.1059.1298.0217.0528.0273.1108.0161.1668-.0112.0559-.0387.1073-.079.1477l-3.4174 3.4226c-.27.27-.6377.423-1.0196.423h-10.9491c-.759-.0009-1.5103-.1512-2.2112-.4424-.7008-.2912-1.3375-.7176-1.8735-1.2549-.5361-.5372-.96107-1.1748-1.25072-1.8763-.28966-.7015-.43831-1.4532-.43747-2.2121v-3.663c.00028-.0565.01707-.1117.04832-.1587.03124-.047.07557-.0839.12752-.1061.05194-.0221.10924-.0286.16481-.0185.05557.01.10699.0361.14793.075zm9.1491-21.6759-4.4498 4.6672c-.3086.3085-.531.6685-.6712 1.0542-.1233.3267-.1864.673-.1864 1.0222v13.77c-.0005.0568-.0178.1122-.0496.1592-.0318.0471-.0768.0837-.1293.1054-.0526.0217-.1103.0274-.166.0165-.0558-.011-.1071-.0381-.1475-.078l-3.41487-3.4251c-.27027-.2715-.42192-.6391-.42172-1.0222v-10.9722c0-3.195 2.58429-5.7858 5.77289-5.7858h3.6553c.0564.0003.1116.0171.1586.0484.0471.0312.0839.0755.1061.1275.0221.0519.0286.1092.0185.1648-.01.0556-.0361.107-.075.1479zm42.5636 5.6302h1.116c.7624 0 1.3809.6171 1.3809 1.3808v1.3063c0 .0411.0334.0733.0733.0733.6364-1.125 1.4914-1.9414 2.5688-2.4544 1.0892-.5139 2.2801-.7758 3.4843-.7663 1.3461 0 2.5573.2494 3.6334.7483 1.0762.4975 1.9929 1.1828 2.7515 2.0507.7734.8972 1.3592 1.9403 1.7228 3.0677.3922 1.1764.5876 2.4428.5876 3.7967.0105 1.2919-.2004 2.5761-.6236 3.7967-.3849 1.122-.9757 2.1624-1.7421 3.0677-.7433.8669-1.6623 1.5659-2.6962 2.0507-1.0792.5049-2.2581.7606-3.4495.7483-.8319 0-1.5648-.09-2.2012-.2687-.5886-.1597-1.1552-.3916-1.6868-.6904-.4487-.2515-.8671-.5535-1.2472-.9-.3117-.2849-.5946-.5997-.8447-.9399-.0291 0-.057.0115-.0777.032-.0207.0204-.0325.0482-.0329.0773v9.288c0 .4467-.1774.8751-.4933 1.191-.3159.3158-.7443.4933-1.191.4933h-1.0324c-.2212 0-.4402-.0436-.6445-.1282-.2044-.0847-.3901-.2087-.5465-.3651s-.2804-.3421-.3651-.5464c-.0846-.2044-.1282-.4234-.1282-.6446v-23.7806c0-.9295.7535-1.6842 1.6843-1.6842zm12.9163 9.2031c0-.7161-.1157-1.4066-.3471-2.07-.2238-.6502-.5733-1.25-1.0286-1.7653-.4566-.5141-1.0119-.9313-1.6329-1.2266-.6351-.3072-1.3564-.4602-2.1638-.4602-.8075 0-1.53.1542-2.1652.4602-.621.2953-1.1762.7125-1.6328 1.2266-.4547.515-.8038 1.1144-1.0273 1.764-.232.6654-.3494 1.3653-.3472 2.07 0 .7174.1158 1.4066.3472 2.0713.2327.6647.5747 1.2536 1.0286 1.764.4564.5146 1.0117.9322 1.6328 1.2279.6352.306 1.3564.4602 2.1639.4602.8074 0 1.5287-.1542 2.1638-.4602.6211-.2957 1.1764-.7133 1.6329-1.2279.4526-.5104.7946-1.0993 1.0286-1.764.2314-.6647.3471-1.3539.3471-2.07zm10.7473-9.2031h1.26c.8048 0 1.458.6518 1.458 1.4567v1.3847c0 .0398.0321.0733.0733.0733.4885-1.0749 1.1854-1.9055 2.0905-2.493.9052-.5876 1.9453-.882 3.1192-.882.2687 0 .5323.0257.7881.0771.2224.044.4226.1638.5666.339.144.1751.2227.3947.2229.6214v2.5252c0 .1346-.0295.2675-.0864.3895-.057.1219-.14.2299-.2433.3162-.1032.0863-.2242.149-.3543.1834-.1301.0345-.2662.0399-.3986.016-.3449-.0632-.6947-.0954-1.0453-.0964-1.0286 0-1.8527.198-2.4763.594-.6236.3973-1.1006.8499-1.431 1.3629-.3113.4665-.5352.9858-.6608 1.5325-.1106.5117-.1646.8949-.1646 1.1507v8.1708c0 .4467-.1775.8751-.4933 1.1909-.3159.3159-.7443.4933-1.191.4933h-1.0337c-.4467 0-.8751-.1774-1.191-.4933-.3159-.3158-.4933-.7442-.4933-1.1909v-15.0378c0-.9295.7534-1.6842 1.6843-1.6842zm14.895 0h1.0337c.93 0 1.684.7547 1.684 1.6842v15.0378c0 .4467-.177.8751-.493 1.1909-.316.3159-.744.4933-1.191.4933h-1.0337c-.4467 0-.8751-.1774-1.191-.4933-.3159-.3158-.4933-.7442-.4933-1.1909v-15.0378c0-.9295.7534-1.6842 1.6843-1.6842zm-2.3079-6.2512c0-.7406.2623-1.386.7882-1.9363.5271-.549 1.1931-.8241 1.9994-.8241.807 0 1.486.2623 2.036.7856.551.5245.826 1.1828.826 1.9748 0 .7933-.275 1.4516-.826 1.9749-.55.5245-1.229.7868-2.036.7868-.8063 0-1.4736-.2751-1.9994-.8241-.2532-.2547-.4532-.5571-.5885-.8897s-.2032-.6888-.1997-1.0479zm18.9686 10.4567c-.894-.6557-1.69-.9848-2.385-.9848-.588 0-1.163.1543-1.726.4603-.562.3072-.843.8048-.843 1.4952 0 .5632.231.972.697 1.2279.465.2546 1.051.4731 1.761.6519.71.1787 1.473.3638 2.292.5554.821.1928 1.584.486 2.294.882s1.296.9386 1.762 1.6303c.464.6904.696 1.6354.696 2.8375 0 1.0993-.226 2.025-.678 2.7798-.436.7371-1.04 1.3613-1.762 1.8218-.749.4712-1.574.8084-2.439.9964-.891.2032-1.802.3062-2.715.3073-1.37 0-2.63-.2057-3.78-.6133-.45-.1607-.99-.4821-1.62-.9655-.192-.1469-.35-.3332-.463-.5463-.113-.2132-.179-.4482-.194-.6891-.014-.2409.023-.4821.11-.7073s.221-.4291.394-.5979l.456-.4474c.304-.2979.709-.4698 1.134-.4813.425-.0114.839.1384 1.159.4196.267.2352.498.4165.694.5438.648.423 1.437.6339 2.366.6339.318 0 .649-.0386.991-.1157.343-.0772.661-.2045.954-.3832.293-.18.532-.4024.716-.6711.183-.2687.275-.5812.275-.9386 0-.6403-.233-1.1134-.698-1.4194-.464-.3073-1.052-.5567-1.761-.7483-.759-.203-1.523-.3818-2.293-.5362-.798-.1591-1.57-.4305-2.292-.8061-.705-.3666-1.31-.8997-1.762-1.5531-.464-.6648-.697-1.5853-.697-2.7605 0-1.0221.202-1.9105.605-2.6653.385-.7322.931-1.3678 1.597-1.8591.684-.4976 1.456-.8622 2.275-1.0749.849-.2288 1.725-.3447 2.604-.3445 1.174 0 2.336.2108 3.485.6325.417.153.881.4359 1.394.8486.188.1511.341.3407.449.5559s.168.4511.178.6918c.009.2407-.034.4805-.125.7033-.092.2228-.23.4234-.405.5883l-.548.5156c-.287.2699-.66.4307-1.053.4544-.393.0238-.782-.0911-1.099-.3246zm10.011-4.2055h.814c.93 0 1.685.7547 1.685 1.6842v1.1919c.481-.9044 1.151-1.6956 1.963-2.3207.868-.6776 2.035-1.0157 3.503-1.0157 2.765 0 4.598 1.1378 5.503 3.4123.637-1.1752 1.431-2.0379 2.385-2.5882.954-.549 2.091-.8241 3.413-.8241 1.173 0 2.163.2044 2.971.6133.785.3896 1.46.9695 1.963 1.6868.502.7162.862 1.5532 1.081 2.5123.222.9591.331 1.9877.331 3.0857v9.2829c0 .4467-.178.8751-.493 1.1909-.316.3159-.745.4934-1.191.4934h-1.034c-.447 0-.875-.1775-1.191-.4934-.316-.3158-.493-.7442-.493-1.1909v-8.7455c0-.5618-.049-1.1057-.147-1.629-.084-.4881-.259-.9563-.514-1.3808-.243-.3939-.584-.7174-.99-.9386-.417-.2314-.954-.3458-1.615-.3458-.684 0-1.265.1337-1.742.4024-.47.2616-.872.6292-1.174 1.0736-.314.4656-.538.9858-.661 1.5338-.134.5719-.202 1.1573-.202 1.7447v8.2865c0 .2211-.043.4402-.128.6445-.085.2044-.209.39-.365.5464-.157.1564-.342.2805-.547.3651-.204.0847-.423.1282-.644.1282h-1.034c-.447 0-.875-.1774-1.191-.4933-.316-.3158-.493-.7442-.493-1.1909v-9.2829c0-1.1507-.232-2.0649-.697-2.7424-.465-.6763-1.234-1.0157-2.312-1.0157-.733 0-1.351.1285-1.852.3831-.502.2571-.917.6017-1.248 1.0363-.335.4458-.579.9541-.716 1.4953-.148.5762-.221 1.169-.218 1.764v8.3623c0 .2212-.044.4404-.129.6448-.084.2044-.209.3902-.365.5466-.157.1564-.342.2804-.547.365-.204.0846-.424.128-.645.1278h-1.034c-.446 0-.875-.1774-1.191-.4933-.315-.3158-.493-.7442-.493-1.1909v-15.0378c0-.9295.755-1.6842 1.684-1.6842zm32.727 0h1.032c.931 0 1.685.7547 1.685 1.6842v15.0378c0 .4467-.178.8751-.494 1.1909-.315.3159-.744.4933-1.191.4933h-1.032c-.447 0-.875-.1774-1.191-.4933-.316-.3158-.493-.7442-.493-1.1909v-15.0378c0-.9295.753-1.6842 1.684-1.6842zm-2.309-6.2512c0-.7406.263-1.386.789-1.9363.526-.549 1.192-.8241 2-.8241.807 0 1.486.2623 2.036.7856.55.5245.826 1.1828.826 1.9748 0 .7933-.276 1.4516-.826 1.9749-.55.5245-1.229.7868-2.036.7868-.808 0-1.474-.2751-2-.8241-.253-.2546-.453-.5569-.589-.8896-.135-.3326-.204-.6888-.2-1.048zm21.537 10.7653c-.152-.1214-.311-.2331-.477-.3343-.519-.3201-1.116-.4926-1.726-.4988-.806 0-1.528.1542-2.163.4602-.621.2953-1.177.7125-1.633 1.2266-.455.515-.804 1.1144-1.028 1.764-.232.6653-.35 1.3653-.348 2.07 0 .7174.116 1.4066.348 2.0713s.575 1.2536 1.029 1.764c.456.5145 1.011.932 1.632 1.2279.635.306 1.357.4602 2.163.4602.686 0 1.322-.1478 1.908-.441.12-.0604.249-.1414.386-.243.338-.2489.757-.3626 1.175-.3186s.804.2425 1.083.5565l.668.7509c.159.1778.276.3887.342.6173.067.2286.082.4691.044.7042-.038.2352-.127.4589-.262.6551-.135.1961-.312.3598-.518.4791-1.06.6174-2.222 1.0398-3.431 1.2471-.538.0887-1.002.1337-1.395.1337-1.279.0075-2.548-.2268-3.741-.6904-1.138-.4369-2.175-1.1024-3.046-1.9556-.874-.871-1.566-1.9072-2.035-3.0484-.502-1.1893-.752-2.5123-.752-3.969s.25-2.7797.752-3.969c.469-1.1412 1.161-2.1774 2.035-3.0484.871-.8532 1.908-1.5187 3.046-1.9556 1.193-.4636 2.462-.6979 3.741-.6904 1.127 0 2.257.2237 3.395.6711.433.171.945.4757 1.534.9142.191.1425.35.3242.466.5329s.186.4396.206.6776c.02.2379-.011.4774-.09.7025-.08.2251-.206.4307-.372.6031l-.681.711c-.289.3019-.68.4857-1.096.5156-.417.03-.83-.0961-1.159-.3536z" fill="#808080" fill-rule="evenodd"/></g></svg>