<svg fill="none" height="70" viewBox="0 0 184 70" width="184" xmlns="http://www.w3.org/2000/svg"><g fill="#808080"><path clip-rule="evenodd" d="m157.854 58.1679v8.13h14.64c2.999 0 8.148-2.2009 8.327-8.3546v-3.1442c0-5.2553-4.298-8.3546-8.327-8.3546h-7.298v-3.773h14.461v-8.1749h-13.879c-3.581 0-8.371 2.9645-8.371 8.4893v2.8298c0 5.5248 4.745 8.3546 8.371 8.3546 10.073.0449-2.417 0 6.895 0v3.9527zm-78.4347-1.9763s7.8345-.6738 7.8345-10.8251-9.491-11.0945-9.491-11.0945h-17.1017v32.0259h8.5957v-7.7257l7.4316 7.7257h12.7143zm-3.3129-6.5579h-6.8496v-7.3216h6.8944s1.925.7187 1.925 3.6383c0 2.9197-1.9698 3.6833-1.9698 3.6833zm32.3676-15.1371h-8.7297c-6.2228 0-8.327 5.6595-8.327 8.3546v23.4467h8.7297v-5.6146h8.193v5.6146h8.461v-23.4467c0-6.8275-6.178-8.3546-8.327-8.3546zm-.134 17.1134h-8.237v-7.7707s-.001-1.7517 2.73-1.7517h3c2.417 0 2.462 1.7517 2.462 1.7517v7.7707z" fill-rule="evenodd"/><path d="m129.874 34.4966h-9.088v31.8014h9.088z"/><g clip-rule="evenodd" fill-rule="evenodd"><path d="m142.633 58.0781v-23.5815h-9.043v23.5815 8.2199h9.043 12.222v-8.2199z"/><path d="m6.71484 66.2977h35.36736s-6.7601-30.9479 15.6244-43.4798c4.8798-2.3806 20.4146-11.2742 45.8434 7.591.806-.6738 1.567-1.2128 1.567-1.2128s-23.28-23.31201-49.2012-20.70682c-13.0277 1.16785-29.055 13.07092-38.4564 28.79192-9.40149 15.721-10.74456 29.0165-10.74456 29.0165z"/><path d="m6.71484 66.2977h35.36736s-6.7601-30.9479 15.6244-43.4798c4.8798-2.3806 20.4146-11.2742 45.8434 7.591.806-.6738 1.567-1.2128 1.567-1.2128s-23.28-23.31201-49.2012-20.70682c-13.0277 1.16785-29.055 13.07092-38.4564 28.79192-9.40149 15.721-10.74456 29.0165-10.74456 29.0165z"/><path d="m6.71484 66.2979h35.36736s-6.7601-30.9479 15.6244-43.4798c4.8798-2.3806 20.4146-11.2742 45.8434 7.591.806-.6737 1.567-1.2128 1.567-1.2128s-23.28-23.31197-49.2012-20.70677c-13.0725 1.16785-29.0997 13.07087-38.5012 28.79187-9.40146 15.721-10.69976 29.0165-10.69976 29.0165zm73.68956-55.293.1791-3.00946c-.403-.22458-1.5222-.76359-4.3426-1.5721l-.1791 2.96453c1.4774.49409 2.91 1.03313 4.3426 1.61703z"/><path d="m76.1514 20.5271-.1791 2.8297c1.4774.045 2.9547.2246 4.4321.539l.1791-2.7848c-1.5222-.3144-2.9995-.4941-4.4321-.5839zm-16.5645-14.0142h.4477l-.8954-2.73995c-1.3878 0-2.8204.08983-4.2978.2695l.8506 2.65012c1.2983-.13476 2.5966-.17967 3.8949-.17967zm2.1489 16.5295 1.0297 3.0993c1.2983-.6288 2.5966-1.1678 3.8949-1.5721l-.9849-2.9645c-1.5222.4491-2.8205.9432-3.9397 1.4373zm-20.3251-11.8132-2.0146-3.09928c-1.1192.58392-2.2832 1.21276-3.4919 1.93148l2.0593 3.1442c1.164-.7187 2.2832-1.3925 3.4472-1.9764zm9.1776 20.2127 2.149 3.2341c.761-1.123 1.6564-2.1561 2.6413-3.1892l-2.0146-3.0543c-1.0297.9432-1.9698 1.9763-2.7757 3.0094zm-6.4914 14.4634 3.6262 2.8747c.1791-1.7518.4925-3.5036.9402-5.2554l-3.2234-2.5602c-.582 1.6619-.9849 3.3238-1.343 4.9409zm-19.6088-21.3357-3.1786-2.7849c-1.164 1.123-2.2832 2.2459-3.3129 3.3688l3.4472 2.9646c.9402-1.2128 1.9699-2.4256 3.0443-3.5485zm-13.5202 20.078-5.1484-1.8865c-.85061 1.9314-1.79076 4.1773-2.23845 5.39l5.14842 1.8865c.582-1.5271 1.52213-3.7281 2.23843-5.39zm32.4574 12.6666c.0896 2.3806.3134 4.3121.5373 5.6596l5.3722 1.9314c-.4029-1.7517-.8058-3.7281-1.0744-5.8392z"/></g></g></svg>